<svg width="204" height="30" viewBox="0 0 204 30" fill="none" xmlns="http://www.w3.org/2000/svg">
<path d="M6.21387 6.06396V15.8248C6.21387 15.9579 6.28457 16.0825 6.40242 16.1491L15.0138 21.138C15.1317 21.2046 15.276 21.2075 15.3939 21.1438L17.7478 19.8669C17.8716 19.8003 17.9481 19.6729 17.9481 19.5339V15.2978C17.9481 15.2167 17.8598 15.1675 17.7861 15.208L16.0538 16.2128C15.936 16.2822 15.7916 16.2822 15.6738 16.2185L10.9247 13.6328C10.7037 13.5112 10.5623 13.2854 10.5535 13.0364L10.3914 8.2993C10.3826 8.08214 10.4916 7.87945 10.6772 7.76074L14.9932 5.03605C15.1818 4.91734 15.4204 4.91154 15.6148 5.02157L20.6173 7.85339C20.7234 7.9142 20.853 7.90841 20.9532 7.84181L22.5264 6.811C22.6766 6.71256 22.874 6.71256 23.0243 6.8139L24.6122 7.87945C24.7153 7.94894 24.8567 7.87656 24.8567 7.75205V5.70781C24.8567 5.54277 24.7684 5.38931 24.621 5.30534L15.7563 0.264238C15.6207 0.186059 15.4499 0.188955 15.3143 0.267134L6.59686 5.40089C6.35823 5.53987 6.21387 5.79178 6.21387 6.06396Z" fill="white"/>
<path d="M6.34062 10.8721V14.96C6.34062 15.0831 6.27746 15.195 6.17744 15.251L4.10601 16.401C3.9902 16.4653 3.9165 16.594 3.91387 16.7339L3.86123 22.1537C3.85859 22.3104 3.93756 22.4559 4.06653 22.5342L8.14095 24.9825C8.22781 25.0357 8.33572 25.0357 8.42521 24.9825L12.5496 22.5147C12.6312 22.4643 12.6891 22.3776 12.6997 22.2768L12.7944 21.5214C12.8076 21.4178 12.9181 21.3647 12.9997 21.4206L14.7106 22.6154L16.3977 21.6109C16.4767 21.5633 16.5714 21.6249 16.5714 21.72V24.1319C16.5714 24.2494 16.5135 24.3614 16.4188 24.4229L8.55155 29.5209C8.42258 29.6049 8.25939 29.6049 8.13042 29.5237L0.200037 24.5684C0.0763302 24.4901 0 24.3502 0 24.1963V14.7669C0 14.599 0.0842258 14.4451 0.221093 14.3612L6.09847 10.7238C6.20639 10.6566 6.34062 10.7377 6.34062 10.8721Z" fill="white"/>
<path d="M18.2652 22.0271C18.2362 22.0069 18.1992 22.03 18.1992 22.0676V24.5196V24.6872C18.1992 24.8749 18.1175 25.0482 17.9778 25.1579L17.047 25.8829C16.9916 25.9262 16.9943 26.0157 17.0523 26.0533L22.4047 29.5249C22.526 29.6029 22.6789 29.6029 22.8002 29.5249L30.8605 24.2857C30.9923 24.1991 31.0714 24.046 31.0714 23.8785V14.2088C31.0714 13.9661 30.9528 13.7438 30.7603 13.6225L22.8767 8.6894C22.6868 8.57098 22.4548 8.57098 22.2676 8.6894L14.6898 13.478C14.5712 13.5531 14.5 13.6918 14.5 13.8391V15.6702L16.2666 16.6955C16.3615 16.7504 16.4775 16.7504 16.5724 16.6955L22.2597 13.3394C22.4706 13.2152 22.7264 13.2268 22.9268 13.3741L26.7578 16.1612C26.895 16.2623 26.9793 16.4298 26.9767 16.6117L26.9503 21.5217C26.9503 21.6343 26.8976 21.7412 26.8106 21.8018L22.7448 24.6843C22.6236 24.7709 22.4654 24.7738 22.3414 24.6929L18.2652 22.0271Z" fill="white"/>
<path d="M49.0947 10.5767C50.9114 10.9429 51.9356 12.0084 52.1673 13.7773V17.9727C51.9996 19.2504 51.4509 20.1494 50.5151 20.6739L52.1459 25.2646H48.6892L47.095 21.1234H42.4678L44.1382 17.9227H47.5949C48.5948 17.9227 49.0916 17.3359 49.0916 16.1663V15.6669C49.0916 14.4099 48.5673 13.7773 47.5157 13.7773H40.6206V25.2605H37.5297V10.5767H49.0947Z" fill="white"/>
<path d="M62.0616 25.2605H53.5723L58.9097 10.5767H63.7869L69.1243 25.2605H65.5152L61.3483 13.7773L58.3336 22.064H63.729L62.0616 25.2605Z" fill="white"/>
<path d="M82.0502 17.5773L80.9741 19.675L73.6005 14.7179V25.2605H70.5278V10.5767H73.6005L82.0502 16.3703V10.5767H85.1411V25.2605H82.0502V17.5773Z" fill="white"/>
<path d="M91.9567 16.2912H98.5805C100.397 16.6574 101.421 17.7229 101.653 19.4918V22.1139C101.421 23.9328 100.397 24.9816 98.5805 25.2605H90.0912C88.2744 24.9816 87.2502 23.9328 87.0186 22.1139V13.7773C87.2502 12.0126 88.2744 10.9471 90.0912 10.5767H101.632L99.9796 13.7773H91.6641C90.6155 13.7773 90.0881 14.4058 90.0881 15.6669V20.3076C90.0881 21.4771 90.588 22.064 91.5848 22.064H97.0777C98.0776 22.064 98.5744 21.6519 98.5744 20.832C98.5744 20.3076 98.4464 19.9538 98.1903 19.7707C97.9343 19.5875 97.538 19.496 96.9985 19.496H93.6454L91.9567 16.2912Z" fill="white"/>
<path d="M117.095 16.3703L115.424 19.5709H106.609V20.3034C106.609 21.473 107.109 22.0598 108.105 22.0598H117.131L115.461 25.2605H106.609C104.792 24.9816 103.768 23.9328 103.536 22.1139V13.7773C103.768 12.0126 104.792 10.9471 106.609 10.5767H117.113V13.7773H108.185C107.136 13.7773 106.609 14.4058 106.609 15.6669V18.393L107.663 16.3744H117.095V16.3703Z" fill="white"/>
<path d="M120.684 22.0598H128.981C129.517 22.0598 129.917 21.9683 130.173 21.7851C130.429 21.602 130.557 21.2482 130.557 20.7238C130.557 20.3034 130.432 20.0038 130.182 19.8206C129.932 19.6375 129.557 19.5459 129.057 19.5459H122.068C120.251 19.2671 119.227 18.2182 118.995 16.3994V13.7773C119.227 12.0126 120.251 10.9471 122.068 10.5767H133.63V13.7773H123.64C123.104 13.7773 122.705 13.8689 122.449 14.052C122.193 14.2351 122.065 14.5889 122.065 15.1133C122.065 15.9332 122.564 16.3453 123.561 16.3453H130.551C132.368 16.6242 133.392 17.6563 133.623 19.4377V22.0598C133.392 23.8245 132.368 24.89 130.551 25.2605H118.989L120.684 22.0598Z" fill="white"/>
<path d="M135.513 10.5767H148.995V13.7773H143.792V25.2605H140.719V13.7773H135.516V10.5767H135.513Z" fill="white"/>
<path d="M153.943 10.5767H162.433C164.25 10.9429 165.274 12.0084 165.505 13.7773V22.1139C165.274 23.9328 164.25 24.9816 162.433 25.2605H153.943C152.127 24.9816 151.103 23.9328 150.871 22.1139V13.7773C151.099 12.0084 152.124 10.9429 153.943 10.5767ZM153.943 15.6627V20.3034C153.943 21.473 154.443 22.0598 155.44 22.0598H160.933C161.933 22.0598 162.43 21.473 162.43 20.3034V15.6627C162.43 14.4058 161.905 13.7731 160.854 13.7731H155.516C154.468 13.7773 153.943 14.4058 153.943 15.6627Z" fill="white"/>
<path d="M178.952 10.5767C180.769 10.9429 181.793 12.0084 182.025 13.7773V17.9727C181.857 19.2504 181.308 20.1494 180.372 20.6739L182.006 25.2646H178.55L176.955 21.1234H172.328L173.998 17.9227H177.455C178.455 17.9227 178.952 17.3359 178.952 16.1663V15.6669C178.952 14.4099 178.428 13.7773 177.376 13.7773H170.481V25.2605H167.39V10.5767H178.952Z" fill="white"/>
<path d="M200.246 13.7232L196.003 25.2605H191.241L186.998 13.7232V25.2605H183.907V10.5767H189.4L193.625 22.089L197.85 10.5767H203.343V25.2605H200.252V13.7232H200.246Z" fill="white"/>
</svg>
